<?xml version="1.0" standalone="no"?>
<!DOCTYPE svg PUBLIC "-//W3C//DTD SVG 20010904//EN"
 "http://www.w3.org/TR/2001/REC-SVG-20010904/DTD/svg10.dtd">
<svg version="1.0" xmlns="http://www.w3.org/2000/svg"
 width="512.000000pt" height="512.000000pt" viewBox="0 0 512.000000 512.000000"
 preserveAspectRatio="xMidYMid meet">

<g transform="translate(0.000000,512.000000) scale(0.100000,-0.100000)"
fill="#000000" stroke="none">
<path d="M2325 5109 c-499 -51 -945 -229 -1345 -537 -124 -96 -363 -340 -462
-472 -261 -349 -423 -735 -490 -1165 -31 -200 -31 -550 0 -750 86 -553 329
-1033 722 -1426 156 -157 255 -238 426 -349 663 -432 1517 -528 2263 -254 156
57 389 177 532 273 1184 792 1503 2365 719 3543 -201 303 -468 564 -780 762
-100 64 -351 186 -475 232 -138 50 -341 101 -498 125 -153 23 -473 33 -612 18z
m840 -2665 c-335 -332 -636 -624 -668 -649 -138 -105 -338 -114 -486 -21 -47
30 -663 625 -659 636 2 4 67 74 146 155 l142 147 78 -73 c42 -40 175 -168 294
-284 120 -115 222 -210 226 -210 5 0 285 271 623 603 l614 602 150 -151 150
-150 -610 -605z"/>
</g>
</svg>
