<?xml version="1.0" standalone="no"?>
<!DOCTYPE svg PUBLIC "-//W3C//DTD SVG 20010904//EN"
 "http://www.w3.org/TR/2001/REC-SVG-20010904/DTD/svg10.dtd">
<svg version="1.0" xmlns="http://www.w3.org/2000/svg"
 width="512.000000pt" height="512.000000pt" viewBox="0 0 512.000000 512.000000"
 preserveAspectRatio="xMidYMid meet">

<g transform="translate(0.000000,512.000000) scale(0.100000,-0.100000)"
fill="#000000" stroke="none">
<path d="M2325 5109 c-499 -51 -945 -229 -1345 -537 -124 -96 -363 -340 -462
-472 -261 -349 -423 -735 -490 -1165 -31 -200 -31 -550 0 -750 86 -553 329
-1033 722 -1426 156 -157 255 -238 426 -349 663 -432 1517 -528 2263 -254 249
91 554 268 761 442 1002 840 1213 2296 489 3377 -202 302 -469 562 -779 759
-100 64 -351 186 -475 232 -138 50 -341 101 -498 125 -153 23 -473 33 -612 18z
m600 -258 c878 -148 1582 -757 1848 -1598 258 -813 41 -1707 -561 -2316 -265
-269 -570 -460 -917 -575 -827 -275 -1713 -75 -2339 527 -381 368 -603 796
-692 1336 -14 83 -19 165 -19 335 0 170 5 252 19 335 60 366 170 653 364 947
87 131 149 207 276 336 397 405 880 635 1461 696 103 11 444 -3 560 -23z"/>
<path d="M2325 4080 c-466 -101 -824 -465 -911 -929 -21 -109 -21 -285 -1
-376 69 -309 302 -726 718 -1281 196 -262 337 -437 367 -456 31 -21 80 -23
117 -6 14 6 88 91 164 187 551 701 837 1175 922 1526 65 267 -11 613 -189 865
-152 215 -402 389 -657 456 -139 37 -394 44 -530 14z m428 -236 c173 -35 321
-117 458 -253 167 -167 253 -351 274 -591 20 -221 -117 -540 -429 -1005 -126
-188 -481 -663 -496 -664 -3 0 -30 32 -60 71 -493 642 -743 1047 -837 1356
-66 217 -9 505 141 715 54 76 171 189 251 242 200 132 453 179 698 129z"/>
<path d="M2416 3633 c-251 -53 -446 -229 -533 -478 -25 -72 -27 -93 -27 -215
0 -118 3 -145 26 -212 40 -120 92 -204 182 -293 136 -135 305 -205 496 -205
119 0 210 22 320 76 165 82 296 236 357 419 24 71 27 96 27 215 0 122 -2 143
-27 215 -122 351 -470 554 -821 478z m259 -238 c207 -54 355 -244 355 -454 0
-122 -41 -228 -121 -315 -96 -105 -210 -156 -349 -156 -139 0 -253 51 -349
156 -169 184 -161 467 18 644 122 120 286 166 446 125z"/>
</g>
</svg>
