<?xml version="1.0" encoding="UTF-8"?>
<!DOCTYPE svg PUBLIC "-//W3C//DTD SVG 1.1//EN" "http://www.w3.org/Graphics/SVG/1.1/DTD/svg11.dtd">
<svg xmlns="http://www.w3.org/2000/svg" version="1.1" width="512px" height="512px" style="shape-rendering:geometricPrecision; text-rendering:geometricPrecision; image-rendering:optimizeQuality; fill-rule:evenodd; clip-rule:evenodd" xmlns:xlink="http://www.w3.org/1999/xlink">
<g><path style="opacity:0.992" fill="#1b1b1b" d="M 511.5,249.5 C 511.5,253.5 511.5,257.5 511.5,261.5C 508.642,268.183 503.642,272.683 496.5,275C 338.749,347.473 181.082,420.14 23.5,493C 12.4424,495.303 4.44235,491.47 -0.5,481.5C -0.5,477.167 -0.5,472.833 -0.5,468.5C 52.2357,397.389 105.236,326.389 158.5,255.5C 105.236,184.611 52.2357,113.611 -0.5,42.5C -0.5,38.1667 -0.5,33.8333 -0.5,29.5C 6.18128,17.6621 15.848,14.4954 28.5,20C 187.167,93.3333 345.833,166.667 504.5,240C 507.476,242.825 509.809,245.992 511.5,249.5 Z"/></g>
</svg>
