<?xml version="1.0" encoding="UTF-8"?>
<!DOCTYPE svg PUBLIC "-//W3C//DTD SVG 1.1//EN" "http://www.w3.org/Graphics/SVG/1.1/DTD/svg11.dtd">
<svg xmlns="http://www.w3.org/2000/svg" version="1.1" width="512px" height="512px" style="shape-rendering:geometricPrecision; text-rendering:geometricPrecision; image-rendering:optimizeQuality; fill-rule:evenodd; clip-rule:evenodd" xmlns:xlink="http://www.w3.org/1999/xlink">
<g><path style="opacity:0.998" fill="#f9f9fe" d="M 87.5,-0.5 C 199.5,-0.5 311.5,-0.5 423.5,-0.5C 472.5,9.16667 501.833,38.5 511.5,87.5C 511.5,199.5 511.5,311.5 511.5,423.5C 501.833,472.5 472.5,501.833 423.5,511.5C 311.5,511.5 199.5,511.5 87.5,511.5C 38.5,501.833 9.16667,472.5 -0.5,423.5C -0.5,311.5 -0.5,199.5 -0.5,87.5C 9.16667,38.5 38.5,9.16667 87.5,-0.5 Z"/></g>
<g><path style="opacity:1" fill="#7c7e7b" d="M 153.5,76.5 C 220.167,76.3333 286.834,76.5 353.5,77C 388.871,83.037 410.705,103.537 419,138.5C 419.667,225.167 419.667,311.833 419,398.5C 415.398,417.436 404.231,429.269 385.5,434C 372.915,436.353 361.582,433.686 351.5,426C 319.374,394.708 287.374,363.208 255.5,331.5C 228.347,358.153 201.347,384.986 174.5,412C 167.794,418.374 160.794,424.374 153.5,430C 126.887,440.242 107.054,432.742 94,407.5C 93.4888,405.122 92.8221,402.788 92,400.5C 91.3333,313.167 91.3333,225.833 92,138.5C 100.014,105.319 120.514,84.6526 153.5,76.5 Z"/></g>
<g><path style="opacity:1" fill="#f9f9fe" d="M 156.5,106.5 C 222.501,106.333 288.501,106.5 354.5,107C 372.226,111.726 383.726,122.892 389,140.5C 389.667,225.833 389.667,311.167 389,396.5C 384.949,404.374 378.782,406.541 370.5,403C 335.472,367.639 300.139,332.639 264.5,298C 258.435,294.716 252.435,294.716 246.5,298C 211.472,333.361 176.139,368.361 140.5,403C 132.089,406.686 125.922,404.519 122,396.5C 121.333,311.167 121.333,225.833 122,140.5C 127.455,122.878 138.955,111.544 156.5,106.5 Z"/></g>
</svg>
