<?xml version="1.0" encoding="UTF-8"?>
<!DOCTYPE svg PUBLIC "-//W3C//DTD SVG 1.1//EN" "http://www.w3.org/Graphics/SVG/1.1/DTD/svg11.dtd">
<svg xmlns="http://www.w3.org/2000/svg" version="1.1" width="512px" height="512px" style="shape-rendering:geometricPrecision; text-rendering:geometricPrecision; image-rendering:optimizeQuality; fill-rule:evenodd; clip-rule:evenodd" xmlns:xlink="http://www.w3.org/1999/xlink">
<g><path style="opacity:0.998" fill="#f9f9fe" d="M 87.5,-0.5 C 199.5,-0.5 311.5,-0.5 423.5,-0.5C 472.5,9.16667 501.833,38.5 511.5,87.5C 511.5,199.5 511.5,311.5 511.5,423.5C 501.833,472.5 472.5,501.833 423.5,511.5C 311.5,511.5 199.5,511.5 87.5,511.5C 38.5,501.833 9.16667,472.5 -0.5,423.5C -0.5,311.5 -0.5,199.5 -0.5,87.5C 9.16667,38.5 38.5,9.16667 87.5,-0.5 Z"/></g>
<g><path style="opacity:1" fill="#7b7d7a" d="M 236.5,76.5 C 299.805,72.749 352.305,94.4157 394,141.5C 437.005,198.174 445.672,259.84 420,326.5C 395.266,380.564 354.1,415.064 296.5,430C 225.019,443.729 165.185,423.563 117,369.5C 78.5879,319.382 67.5879,263.715 84,202.5C 110.046,130.406 160.879,88.4065 236.5,76.5 Z"/></g>
<g><path style="opacity:1" fill="#f9f9fe" d="M 238.5,106.5 C 312.329,103.139 364.496,134.806 395,201.5C 414.632,259.89 404.299,312.223 364,358.5C 357.648,364.353 351.148,370.02 344.5,375.5C 334.698,332.531 308.031,307.697 264.5,301C 227.243,298.879 198.409,313.379 178,344.5C 172.485,354.211 168.652,364.545 166.5,375.5C 122.675,340.494 102.842,294.827 107,238.5C 113.76,190.776 137.26,153.943 177.5,128C 196.509,116.721 216.842,109.555 238.5,106.5 Z"/></g>
<g><path style="opacity:1" fill="#7b7d7a" d="M 243.5,151.5 C 274.864,148.091 297.364,160.425 311,188.5C 319.504,214.99 313.67,237.823 293.5,257C 262.952,277.343 234.785,274.509 209,248.5C 189.465,219.859 191.298,192.693 214.5,167C 223.095,159.704 232.761,154.538 243.5,151.5 Z"/></g>
<g><path style="opacity:1" fill="#f8f8fd" d="M 250.5,180.5 C 274.428,180.734 285.928,192.734 285,216.5C 279.42,234.393 267.254,242.226 248.5,240C 231.636,234.13 224.136,222.297 226,204.5C 229.946,192.124 238.113,184.124 250.5,180.5 Z"/></g>
<g><path style="opacity:1" fill="#f9f9fe" d="M 243.5,330.5 C 281.634,327.791 305.467,344.791 315,381.5C 315.825,385.211 315.659,388.878 314.5,392.5C 285.828,404.698 256.161,407.865 225.5,402C 215.468,399.934 205.801,396.767 196.5,392.5C 195.748,368.839 205.415,350.672 225.5,338C 231.485,335.166 237.485,332.666 243.5,330.5 Z"/></g>
</svg>
