<?xml version="1.0" encoding="UTF-8"?>
<!DOCTYPE svg PUBLIC "-//W3C//DTD SVG 1.1//EN" "http://www.w3.org/Graphics/SVG/1.1/DTD/svg11.dtd">
<svg xmlns="http://www.w3.org/2000/svg" version="1.1" width="512px" height="512px" style="shape-rendering:geometricPrecision; text-rendering:geometricPrecision; image-rendering:optimizeQuality; fill-rule:evenodd; clip-rule:evenodd" xmlns:xlink="http://www.w3.org/1999/xlink">
<g><path style="opacity:0.999" fill="#f9f9fe" d="M 87.5,-0.5 C 199.5,-0.5 311.5,-0.5 423.5,-0.5C 472.5,9.16667 501.833,38.5 511.5,87.5C 511.5,199.5 511.5,311.5 511.5,423.5C 501.833,472.5 472.5,501.833 423.5,511.5C 311.5,511.5 199.5,511.5 87.5,511.5C 38.5,501.833 9.16667,472.5 -0.5,423.5C -0.5,311.5 -0.5,199.5 -0.5,87.5C 9.16667,38.5 38.5,9.16667 87.5,-0.5 Z"/></g>
<g><path style="opacity:1" fill="#7b7d7a" d="M 268.5,76.5 C 280.476,74.6123 290.309,78.279 298,87.5C 305.205,101.357 313.205,114.691 322,127.5C 342.978,154.123 362.978,181.457 382,209.5C 410.976,258.864 411.976,308.864 385,359.5C 351.076,413.047 302.243,437.88 238.5,434C 182.263,425.081 142.096,394.914 118,343.5C 103.006,305.653 102.672,267.653 117,229.5C 122.486,213.682 130.653,199.515 141.5,187C 157.092,177.266 171.258,179.1 184,192.5C 186.804,196.443 188.804,200.777 190,205.5C 190.229,228.544 194.229,250.877 202,272.5C 212.557,296.033 230.057,304.2 254.5,297C 267.573,288.825 272.74,276.992 270,261.5C 269.074,256.721 267.741,252.054 266,247.5C 259.081,232.409 252.747,217.076 247,201.5C 237.811,165.918 238.811,130.585 250,95.5C 253.713,86.6222 259.88,80.2888 268.5,76.5 Z"/></g>
<g><path style="opacity:1" fill="#f9f9fe" d="M 276.5,111.5 C 296.864,143.712 319.03,174.712 343,204.5C 356.701,222.568 366.701,242.568 373,264.5C 379.571,317.512 360.738,358.679 316.5,388C 274.941,410.325 233.607,409.992 192.5,387C 151.198,358.824 132.698,319.657 137,269.5C 140.783,248.605 148.449,229.272 160,211.5C 161.031,234.051 165.031,256.051 172,277.5C 185.544,315.518 212.377,332.685 252.5,329C 287.047,318.767 302.88,295.601 300,259.5C 298.961,252.677 297.294,246.01 295,239.5C 288.385,224.605 282.052,209.605 276,194.5C 268.685,166.797 268.852,139.13 276.5,111.5 Z"/></g>
</svg>
