<?xml version="1.0" encoding="UTF-8"?>
<!DOCTYPE svg PUBLIC "-//W3C//DTD SVG 1.1//EN" "http://www.w3.org/Graphics/SVG/1.1/DTD/svg11.dtd">
<svg xmlns="http://www.w3.org/2000/svg" version="1.1" width="512px" height="512px" style="shape-rendering:geometricPrecision; text-rendering:geometricPrecision; image-rendering:optimizeQuality; fill-rule:evenodd; clip-rule:evenodd" xmlns:xlink="http://www.w3.org/1999/xlink">
<g><path style="opacity:0.998" fill="#f9f9fe" d="M 87.5,-0.5 C 199.5,-0.5 311.5,-0.5 423.5,-0.5C 472.5,9.16667 501.833,38.5 511.5,87.5C 511.5,199.5 511.5,311.5 511.5,423.5C 501.833,472.5 472.5,501.833 423.5,511.5C 311.5,511.5 199.5,511.5 87.5,511.5C 38.5,501.833 9.16667,472.5 -0.5,423.5C -0.5,311.5 -0.5,199.5 -0.5,87.5C 9.16667,38.5 38.5,9.16667 87.5,-0.5 Z"/></g>
<g><path style="opacity:1" fill="#7b7d7a" d="M 241.5,76.5 C 287.7,73.525 324.867,90.1917 353,126.5C 369.563,151.618 376.896,179.285 375,209.5C 401.907,217.08 420.573,233.747 431,259.5C 432.206,263.45 433.206,267.45 434,271.5C 434.667,303.5 434.667,335.5 434,367.5C 429.18,395.32 413.014,412.487 385.5,419C 377.833,419.667 370.167,419.667 362.5,419C 348.229,414.132 333.895,409.465 319.5,405C 315.167,404.333 310.833,404.333 306.5,405C 275.79,413.792 245.123,422.792 214.5,432C 201.18,435.23 187.847,435.23 174.5,432C 153.729,426.188 133.396,419.188 113.5,411C 92.4641,397.952 80.2974,379.118 77,354.5C 76.3333,328.5 76.3333,302.5 77,276.5C 82.6529,241.349 102.82,220.016 137.5,212.5C 132.316,158.365 152.983,117.532 199.5,90C 212.873,83.1519 226.873,78.6519 241.5,76.5 Z"/></g>
<g><path style="opacity:1" fill="#f9f9fd" d="M 241.5,106.5 C 281.05,102.862 311.55,117.528 333,150.5C 344.412,170.863 347.746,192.53 343,215.5C 339.502,230.497 332.835,243.83 323,255.5C 304.195,273.305 285.695,291.471 267.5,310C 261.495,315.762 254.828,316.762 247.5,313C 227.667,293.833 207.833,274.667 188,255.5C 165.149,226.726 160.149,195.06 173,160.5C 186.91,131.08 209.744,113.08 241.5,106.5 Z"/></g>
<g><path style="opacity:1" fill="#7c7e7b" d="M 243.5,136.5 C 279.252,133.439 302.752,148.772 314,182.5C 318.119,209.754 308.952,231.254 286.5,247C 252.119,263.282 224.285,255.782 203,224.5C 190.176,197.63 194.009,173.463 214.5,152C 223.095,144.704 232.761,139.538 243.5,136.5 Z"/></g>
<g><path style="opacity:1" fill="#f8f8fd" d="M 246.5,166.5 C 265.835,163.575 278.669,171.241 285,189.5C 285.669,214.497 273.503,226.33 248.5,225C 227.991,216.813 221.491,202.313 229,181.5C 233.504,174.821 239.337,169.821 246.5,166.5 Z"/></g>
<g><path style="opacity:1" fill="#f9f9fe" d="M 366.5,238.5 C 385.581,243.08 398.081,254.746 404,273.5C 404.667,304.833 404.667,336.167 404,367.5C 398.302,383.86 386.802,391.36 369.5,390C 356.229,385.465 342.895,381.132 329.5,377C 320.219,375.481 310.886,375.147 301.5,376C 269.002,384.721 236.669,394.054 204.5,404C 198.167,404.667 191.833,404.667 185.5,404C 168.439,398.869 151.439,393.535 134.5,388C 119.468,381.636 110.301,370.469 107,354.5C 106.333,328.167 106.333,301.833 107,275.5C 111.663,258.334 122.497,247.167 139.5,242C 141.579,241.192 143.579,241.359 145.5,242.5C 150.229,254.301 156.729,264.968 165,274.5C 184.138,292.638 202.972,311.138 221.5,330C 241.701,349.048 263.034,350.381 285.5,334C 305.972,314.529 326.138,294.695 346,274.5C 355.162,263.845 361.995,251.845 366.5,238.5 Z"/></g>
</svg>
