<?xml version="1.0" encoding="UTF-8"?>
<svg version="1.1" xmlns="http://www.w3.org/2000/svg" width="512" height="512">
<path d="M0 0 C4.07371199 0.00914608 8.14735849 -0.00496601 12.22105694 -0.01591969 C20.17765482 -0.03360871 28.13410087 -0.02990815 36.09070444 -0.01826912 C42.56324498 -0.00919692 49.03574329 -0.00802708 55.50828838 -0.01236439 C56.8956167 -0.01328379 56.8956167 -0.01328379 58.31097186 -0.01422176 C60.19047309 -0.01550079 62.06997432 -0.01679765 63.94947553 -0.01811212 C81.53031666 -0.02948975 99.11107405 -0.0164486 116.69190145 0.00508934 C131.74277919 0.02295775 146.79353347 0.01985285 161.84440899 0.0014143 C179.36683906 -0.02004238 196.88919593 -0.02839137 214.41163731 -0.01613665 C216.28382014 -0.01486259 218.15600299 -0.0136051 220.02818584 -0.01236439 C220.9490843 -0.01174729 221.86998275 -0.01113018 222.81878722 -0.01049438 C229.27568975 -0.00705584 235.73254545 -0.01283737 242.18944073 -0.0222826 C250.06951944 -0.03355746 257.949439 -0.03034815 265.82949972 -0.00915962 C269.84197168 0.00127756 273.8541793 0.0055997 277.86664867 -0.00775623 C309.72328262 -0.10471402 337.99599089 4.32507475 361.76823711 27.52289867 C362.61386211 28.32727367 363.45948711 29.13164867 364.33073711 29.96039867 C365.53729961 31.22883617 365.53729961 31.22883617 366.76823711 32.52289867 C367.76597149 33.52836742 367.76597149 33.52836742 368.78386211 34.55414867 C391.33652473 58.18074761 394.3945222 87.69469143 394.29113579 118.75466156 C394.2819897 122.82837355 394.2961018 126.90202005 394.30705547 130.9757185 C394.3247445 138.93231638 394.32104394 146.88876243 394.30940491 154.845366 C394.30033271 161.31790654 394.29916287 167.79040485 394.30350018 174.26294994 C394.30411311 175.18783549 394.30472604 176.11272104 394.30535755 177.06563342 C394.30663658 178.94513465 394.30793344 180.82463588 394.30924791 182.70413709 C394.32062553 200.28497822 394.30758439 217.86573561 394.28604645 235.44656301 C394.26817804 250.49744075 394.27128294 265.54819503 394.28972149 280.59907055 C394.31117816 298.12150062 394.31952716 315.64385749 394.30727243 333.16629887 C394.30599838 335.0384817 394.30474089 336.91066455 394.30350018 338.7828474 C394.30288307 339.70374586 394.30226597 340.62464431 394.30163017 341.57344878 C394.29819163 348.03035131 394.30397316 354.48720701 394.31341839 360.94410229 C394.32469325 368.824181 394.32148393 376.70410056 394.30029541 384.58416128 C394.28985823 388.59663324 394.28553609 392.60884086 394.29889202 396.62131023 C394.3958498 428.47794418 389.96606104 456.75065245 366.76823711 480.52289867 C365.96386211 481.36852367 365.15948711 482.21414867 364.33073711 483.08539867 C363.48511211 483.88977367 362.63948711 484.69414867 361.76823711 485.52289867 C361.09792461 486.18805492 360.42761211 486.85321117 359.73698711 487.53852367 C336.11038818 510.09118629 306.59644436 513.14918376 275.53647423 513.04579735 C271.46276224 513.03665126 267.38911574 513.05076336 263.31541729 513.06171703 C255.35881941 513.07940606 247.40237336 513.0757055 239.44576979 513.06406647 C232.97322924 513.05499427 226.50073094 513.05382443 220.02818584 513.05816174 C218.64085753 513.05908113 218.64085753 513.05908113 217.22550237 513.06001911 C215.34600114 513.06129814 213.46649991 513.062595 211.5869987 513.06390947 C194.00615757 513.07528709 176.42540018 513.06224595 158.84457278 513.04070801 C143.79369504 513.0228396 128.74294075 513.0259445 113.69206524 513.04438305 C96.16963517 513.06583972 78.6472783 513.07418872 61.12483692 513.06193399 C59.25265409 513.06065994 57.38047124 513.05940245 55.50828838 513.05816174 C54.58738993 513.05754463 53.66649148 513.05692753 52.71768701 513.05629173 C46.26078448 513.05285319 39.80392878 513.05863472 33.3470335 513.06807995 C25.46695479 513.07935481 17.58703523 513.07614549 9.70697451 513.05495697 C5.69450255 513.04451979 1.68229493 513.04019765 -2.33017445 513.05355358 C-34.18680839 513.15051136 -62.45951666 508.7207226 -86.23176289 485.52289867 C-87.50020039 484.31633617 -87.50020039 484.31633617 -88.79426289 483.08539867 C-89.59863789 482.23977367 -90.40301289 481.39414867 -91.23176289 480.52289867 C-91.89691914 479.85258617 -92.56207539 479.18227367 -93.24738789 478.49164867 C-115.8000505 454.86504974 -118.85804797 425.35110592 -118.75466156 394.29113579 C-118.74551548 390.2174238 -118.75962757 386.1437773 -118.77058125 382.07007885 C-118.78827027 374.11348097 -118.78456971 366.15703492 -118.77293068 358.20043135 C-118.76385848 351.7278908 -118.76268864 345.2553925 -118.76702595 338.7828474 C-118.76763888 337.85796186 -118.76825181 336.93307631 -118.76888332 335.98016393 C-118.77016235 334.1006627 -118.77145921 332.22116147 -118.77277368 330.34166026 C-118.78415131 312.76081913 -118.77111016 295.18006174 -118.74957222 277.59923434 C-118.73170381 262.5483566 -118.73480871 247.49760231 -118.75324726 232.4467268 C-118.77470394 214.92429673 -118.78305293 197.40193986 -118.77079821 179.87949848 C-118.76952415 178.00731565 -118.76826666 176.1351328 -118.76702595 174.26294994 C-118.76640885 173.34205149 -118.76579174 172.42115304 -118.76515594 171.47234857 C-118.7617174 165.01544604 -118.76749893 158.55859034 -118.77694416 152.10169506 C-118.78821902 144.22161635 -118.78500971 136.34169679 -118.76382118 128.46163607 C-118.753384 124.44916411 -118.74906186 120.43695649 -118.76241779 116.42448711 C-118.85937558 84.56785317 -114.42958681 56.2951449 -91.23176289 32.52289867 C-90.42738789 31.67727367 -89.62301289 30.83164867 -88.79426289 29.96039867 C-87.94863789 29.15602367 -87.10301289 28.35164867 -86.23176289 27.52289867 C-85.56145039 26.85774242 -84.89113789 26.19258617 -84.20051289 25.50727367 C-60.57391395 2.95461106 -31.05997013 -0.10338641 0 0 Z " fill="#F9F9FE" transform="translate(118.23176288604736,-0.5228986740112305)"/>
<path d="M0 0 C5.26594344 1.85856827 7.79395768 4.60314196 11 9 C12.15839043 12.47517129 12.22801218 15.6727002 12.31640625 19.29296875 C12.33718735 19.99899734 12.35796844 20.70502594 12.37937927 21.43244934 C12.44467491 23.68403551 12.50366647 25.93573662 12.5625 28.1875 C12.60570425 29.7155066 12.64931916 31.24350164 12.69335938 32.77148438 C12.80033574 36.51420562 12.90165922 40.2570423 13 44 C13.75893555 43.34918457 14.51787109 42.69836914 15.29980469 42.02783203 C21.37092735 36.8659789 27.44740416 32.05786648 34.25 27.875 C35.05646973 27.37347412 35.86293945 26.87194824 36.69384766 26.35522461 C48.24106648 19.27968952 60.19436985 13.44506209 73 9 C73.98742187 8.65324219 74.97484375 8.30648437 75.9921875 7.94921875 C85.77940336 4.72416925 95.87444832 2.82826918 106 1 C106.93062256 0.82057861 107.86124512 0.64115723 108.82006836 0.45629883 C112.37914438 -0.05440467 115.78723095 -0.12963097 119.3828125 -0.1328125 C120.07833221 -0.13376923 120.77385193 -0.13472595 121.490448 -0.13571167 C122.95782563 -0.1363891 124.42520633 -0.13456543 125.89257812 -0.13037109 C128.09772789 -0.12506562 130.3026694 -0.13030558 132.5078125 -0.13671875 C143.71756246 -0.14366794 154.73675371 0.16421252 165.6875 2.75 C166.45167236 2.92772949 167.21584473 3.10545898 168.00317383 3.28857422 C170.33966711 3.84317571 172.67030015 4.41757504 175 5 C176.03833984 5.25475098 176.03833984 5.25475098 177.09765625 5.51464844 C222.94256122 17.02004125 261.89448711 47.92469783 286.125 88.125 C297.01270436 106.71018848 303.86934084 126.94956628 308 148 C308.18312744 148.87591797 308.36625488 149.75183594 308.55493164 150.65429688 C310.06888623 158.56580059 310.2760725 166.3244023 310.20581055 174.34521484 C310.18752387 176.49719151 310.18530205 178.6487347 310.18554688 180.80078125 C310.15862845 191.90240209 309.8103125 202.84463962 307.25 213.6875 C307.07227051 214.45167236 306.89454102 215.21584473 306.71142578 216.00317383 C306.15682429 218.33966711 305.58242496 220.67030015 305 223 C304.83016602 223.69222656 304.66033203 224.38445312 304.48535156 225.09765625 C293.07797763 270.55199076 262.51408264 309.51632949 222.62573242 333.58813477 C193.63473595 350.55683051 162.46940965 358.19561055 129.0625 358.3125 C128.33966827 358.31511841 127.61683655 358.31773682 126.87210083 358.32043457 C115.32861302 358.32489047 104.40326059 357.36014728 93.18164062 354.53808594 C91.13346951 354.03291929 89.08518331 353.60238778 87.015625 353.1953125 C42.65264957 343.68896062 4.18529799 312.95363721 -20.43701172 275.73632812 C-38.20986402 248.06601915 -47.65509601 215.85745794 -48.3125 183.125 C-48.34230957 182.31611328 -48.37211914 181.50722656 -48.40283203 180.67382812 C-48.45535745 175.28717927 -47.60828253 172.25261869 -44 168 C-40.76623919 165.18082391 -37.67755032 164.08320793 -33.4375 163.5625 C-28.1213042 164.23910674 -24.67999063 165.97713114 -21.1875 170 C-18.13359837 174.18820795 -17.91550435 177.06288602 -17.81201172 182.15429688 C-16.82377714 222.52406841 0.19354935 259.95036907 29 288 C46.79229316 304.44766642 68.38922958 316.70911947 91.97558594 322.48095703 C93.93154643 322.98244907 95.86168052 323.58153526 97.7890625 324.18359375 C132.03599519 334.25547137 172.10142011 325.67289925 202.85546875 309.515625 C238.24230523 289.97317539 262.64247147 257.29036491 274.18652344 218.86132812 C280.62705725 196.20734966 281.98330839 170.89160499 276 148 C275.66478654 146.50982685 275.33293861 145.01889388 275.00390625 143.52734375 C269.84250362 121.10576672 259.06532728 100.37850745 244 83 C243.30390625 82.18273437 242.6078125 81.36546875 241.890625 80.5234375 C232.79038201 70.10010953 222.70460965 61.38624688 211 54 C210.40622559 53.62488281 209.81245117 53.24976563 209.20068359 52.86328125 C198.08798214 45.97040689 186.34053323 41.24374232 174 37 C172.98421875 36.65066406 171.9684375 36.30132812 170.921875 35.94140625 C168.2911718 35.14309537 165.69657262 34.53859639 163 34 C162.35434082 33.86754883 161.70868164 33.73509766 161.04345703 33.59863281 C121.41633781 25.75604084 81.74416535 33.54562057 47.95703125 55.578125 C40.37457272 60.75500397 33.73451348 66.78462724 27 73 C27.86324387 73.00879936 27.86324387 73.00879936 28.743927 73.01777649 C34.74659712 73.08182836 40.74873695 73.16627832 46.75097656 73.26245117 C48.98951211 73.29565666 51.22813049 73.32370216 53.46679688 73.34643555 C56.68916039 73.38006145 59.91076774 73.43238272 63.1328125 73.48828125 C64.12991241 73.49467117 65.12701233 73.5010611 66.15432739 73.50764465 C72.24362012 73.63579945 76.9890798 74.18933102 81.64453125 78.53515625 C85.473812 83.54267723 86.65022678 86.6632445 86 93 C84.28271412 97.69994029 82.13393334 100.20959499 78 103 C74.92926563 104.02357812 72.76050531 104.15082127 69.54150391 104.19287109 C68.42248688 104.20893402 67.30346985 104.22499695 66.15054321 104.24154663 C61.00288846 104.28622928 55.85532063 104.32754655 50.70751953 104.35009766 C48.00339272 104.3633508 45.30003609 104.39103954 42.59619141 104.43212891 C38.68108681 104.48732531 34.76700559 104.50884431 30.8515625 104.5234375 C29.65939117 104.54610687 28.46721985 104.56877625 27.23892212 104.59213257 C15.41592715 104.56284544 5.29705221 101.06954905 -3.7109375 93.30859375 C-12.48771618 84.45692788 -18.07371945 74.88481783 -18.16113281 62.29516602 C-18.17074036 61.17372696 -18.1803479 60.0522879 -18.19024658 58.89686584 C-18.19449646 57.69468918 -18.19874634 56.49251251 -18.203125 55.25390625 C-18.20882507 54.01003647 -18.21452515 52.76616669 -18.22039795 51.48460388 C-18.22983519 48.85619962 -18.23637685 46.2277836 -18.24023438 43.59936523 C-18.24463153 40.90977501 -18.25857516 38.22050335 -18.28125 35.53100586 C-18.31170072 31.64687369 -18.32228014 27.76314445 -18.328125 23.87890625 C-18.3404718 22.67875381 -18.3528186 21.47860138 -18.36553955 20.24208069 C-18.33757321 9.7623532 -18.33757321 9.7623532 -15 5 C-10.08471669 0.56425652 -6.61439479 -0.66762116 0 0 Z " fill="#7C7E7B" transform="translate(125,77)"/>
<path d="M0 0 C4.93744042 2.33406274 7.35407817 5.27835941 10 10 C10.24981689 13.22372437 10.24981689 13.22372437 9.91113281 16.74755859 C9.80121856 18.09416251 9.69241559 19.44085747 9.58456421 20.78762817 C9.52069897 21.49639225 9.45683372 22.20515633 9.39103317 22.9353981 C5.276762 59.91010262 5.276762 59.91010262 17.28796387 93.51858521 C25.89221648 103.70871043 36.16407773 112.20175351 47.00341797 119.91894531 C51.10230533 122.90854714 53.60236407 125.53895601 54.43359375 130.68359375 C54.44199545 136.60679444 54.20914447 140.44957354 50 145 C46.1322819 148.51610737 42.0063561 148.45078868 37.01171875 148.69140625 C28.64412392 146.7704409 22.01343314 138.32037035 16.171875 132.47265625 C15.26044739 131.56551376 14.34901978 130.65837128 13.40997314 129.72373962 C11.49387282 127.81504704 9.5816218 125.90259757 7.671875 123.98754883 C5.23726881 121.54713188 2.79143999 119.1183155 0.34238815 116.69240665 C-2.0130883 114.35527999 -4.35744983 112.00711979 -6.703125 109.66015625 C-7.57608215 108.79640884 -8.44903931 107.93266144 -9.34844971 107.04273987 C-10.16319763 106.22176315 -10.97794556 105.40078644 -11.81738281 104.55493164 C-12.53049622 103.84244766 -13.24360962 103.12996368 -13.97833252 102.39588928 C-18.87130562 96.59719987 -20.60021511 92.2493105 -20.51757812 84.68139648 C-20.5245874 83.8804657 -20.53159668 83.07953491 -20.53881836 82.2543335 C-20.5563184 79.62622657 -20.54480573 76.99921021 -20.53125 74.37109375 C-20.53394696 72.53458959 -20.53783108 70.69808682 -20.54284668 68.86158752 C-20.54873066 65.02094875 -20.54021338 61.18068315 -20.52148438 57.34008789 C-20.49867929 52.42498085 -20.51183461 47.51074681 -20.53577423 42.59567165 C-20.55024829 38.80631465 -20.54561914 35.01716368 -20.53526306 31.22780037 C-20.53260105 29.41576089 -20.53584699 27.6037025 -20.54518127 25.7916851 C-20.55537537 23.25702425 -20.53980772 20.72376575 -20.51757812 18.18920898 C-20.52972351 17.07389549 -20.52972351 17.07389549 -20.54211426 15.93605042 C-20.43966992 9.61002109 -17.95631352 6.25272466 -13.9375 1.625 C-9.39025114 -0.89049937 -5.07641098 -0.73160041 0 0 Z " fill="#7C7E7B" transform="translate(261,167)"/>
</svg>
