<?xml version="1.0" standalone="no"?>
<!DOCTYPE svg PUBLIC "-//W3C//DTD SVG 20010904//EN"
 "http://www.w3.org/TR/2001/REC-SVG-20010904/DTD/svg10.dtd">
<svg version="1.0" xmlns="http://www.w3.org/2000/svg"
 width="512.000000pt" height="512.000000pt" viewBox="0 0 512.000000 512.000000"
 preserveAspectRatio="xMidYMid meet">

<g transform="translate(0.000000,512.000000) scale(0.100000,-0.100000)"
fill="#000000" stroke="none">
<path d="M1510 4335 c-294 -63 -531 -307 -580 -600 -8 -52 -10 -410 -8 -1360
l3 -1290 31 -66 c18 -37 48 -85 69 -107 109 -121 289 -172 442 -124 107 34 85
15 725 651 l366 364 484 -477 c440 -435 489 -480 554 -512 211 -105 464 -14
567 204 l32 67 3 1300 c2 1174 1 1307 -14 1375 -64 292 -287 515 -576 574 -68
14 -199 16 -1055 15 -790 0 -991 -3 -1043 -14z m2079 -304 c122 -38 215 -119
274 -240 l32 -66 3 -1283 c3 -1411 6 -1324 -58 -1357 -16 -8 -48 -15 -70 -15
-42 0 -44 2 -582 532 -297 293 -550 538 -561 545 -30 17 -102 16 -135 -1 -15
-8 -99 -87 -187 -176 -88 -89 -329 -328 -537 -531 -373 -366 -376 -369 -418
-369 -22 0 -54 7 -70 15 -64 33 -61 -54 -58 1357 l3 1283 32 66 c59 119 151
201 271 240 54 17 115 18 1029 18 926 1 974 0 1032 -18z"/>
</g>
</svg>
