<?xml version="1.0" standalone="no"?>
<!DOCTYPE svg PUBLIC "-//W3C//DTD SVG 20010904//EN"
 "http://www.w3.org/TR/2001/REC-SVG-20010904/DTD/svg10.dtd">
<svg version="1.0" xmlns="http://www.w3.org/2000/svg"
 width="512.000000pt" height="512.000000pt" viewBox="0 0 512.000000 512.000000"
 preserveAspectRatio="xMidYMid meet">

<g transform="translate(0.000000,512.000000) scale(0.100000,-0.100000)"
fill="#000000" stroke="none">
<path d="M2350 4340 c-273 -38 -535 -132 -746 -266 -520 -331 -834 -900 -834
-1514 0 -988 803 -1790 1792 -1790 679 0 1293 381 1601 995 249 498 250 1091
1 1587 -98 196 -197 333 -349 483 -258 254 -590 426 -945 490 -110 20 -421 28
-520 15z m521 -318 c397 -93 717 -312 936 -644 102 -155 170 -315 214 -507 32
-137 37 -403 11 -556 -59 -344 -232 -654 -489 -878 l-78 -67 -7 107 c-10 139
-22 189 -65 260 -63 105 -143 169 -254 204 -56 18 -98 19 -579 19 -481 0 -523
-1 -579 -19 -146 -45 -262 -164 -300 -309 -7 -24 -15 -92 -19 -152 l-7 -110
-81 70 c-253 218 -427 532 -486 875 -26 153 -21 419 11 556 44 192 111 351
214 507 242 367 611 598 1062 666 17 2 116 3 220 1 145 -3 210 -8 276 -23z
m217 -2382 c60 -37 72 -81 72 -277 l0 -172 -77 -29 c-168 -64 -324 -92 -523
-92 -199 0 -353 27 -522 92 l-78 30 0 171 c0 196 12 240 72 277 32 19 49 20
528 20 479 0 496 -1 528 -20z"/>
<path d="M2485 3450 c-235 -31 -433 -203 -501 -435 -24 -81 -24 -230 0 -310
59 -199 197 -345 391 -411 112 -39 254 -39 368 -2 191 63 335 215 393 413 23
80 23 230 0 310 -85 288 -362 472 -651 435z m200 -321 c59 -28 116 -84 146
-145 36 -73 34 -178 -4 -256 -34 -69 -91 -121 -164 -148 -143 -53 -303 11
-370 148 -38 78 -40 183 -4 256 41 84 115 144 206 167 47 12 140 2 190 -22z"/>
</g>
</svg>
