<?xml version="1.0" standalone="no"?>
<!DOCTYPE svg PUBLIC "-//W3C//DTD SVG 20010904//EN"
 "http://www.w3.org/TR/2001/REC-SVG-20010904/DTD/svg10.dtd">
<svg version="1.0" xmlns="http://www.w3.org/2000/svg"
 width="512.000000pt" height="512.000000pt" viewBox="0 0 512.000000 512.000000"
 preserveAspectRatio="xMidYMid meet">

<g transform="translate(0.000000,512.000000) scale(0.100000,-0.100000)"
fill="#000000" stroke="none">
<path d="M2672 4337 c-51 -16 -126 -89 -150 -146 -63 -144 -106 -409 -106
-651 -1 -274 32 -411 176 -735 115 -259 139 -372 103 -492 -41 -138 -204 -225
-361 -193 -250 52 -388 316 -424 810 -12 170 -28 219 -95 286 -121 122 -321
117 -432 -10 -106 -120 -233 -418 -290 -678 -28 -131 -26 -429 5 -567 196
-875 1072 -1388 1912 -1119 520 167 901 592 1017 1138 14 67 18 128 17 285 0
183 -3 208 -26 297 -40 145 -104 297 -184 434 -87 149 -160 254 -397 564 -196
257 -317 433 -397 580 -62 114 -98 155 -165 186 -55 26 -142 31 -203 11z m239
-556 c52 -80 160 -232 239 -336 80 -105 177 -233 216 -285 306 -408 409 -674
383 -993 -50 -621 -569 -1097 -1194 -1097 -307 0 -589 113 -815 326 -346 326
-460 813 -299 1271 31 86 110 252 146 305 l19 27 12 -139 c51 -585 259 -931
617 -1025 82 -22 242 -22 325 0 201 52 366 211 426 410 14 45 18 90 17 180 -1
171 -18 229 -167 568 -103 234 -133 380 -123 607 6 129 26 280 48 365 l11 40
22 -39 c11 -21 64 -104 117 -185z"/>
</g>
</svg>
