<?xml version="1.0" standalone="no"?>
<!DOCTYPE svg PUBLIC "-//W3C//DTD SVG 20010904//EN"
 "http://www.w3.org/TR/2001/REC-SVG-20010904/DTD/svg10.dtd">
<svg version="1.0" xmlns="http://www.w3.org/2000/svg"
 width="512.000000pt" height="512.000000pt" viewBox="0 0 512.000000 512.000000"
 preserveAspectRatio="xMidYMid meet">

<g transform="translate(0.000000,512.000000) scale(0.100000,-0.100000)"
fill="#000000" stroke="none">
<path d="M2385 4339 c-157 -23 -353 -100 -498 -197 -93 -61 -251 -218 -309
-307 -148 -225 -214 -453 -206 -711 l4 -132 -54 -12 c-29 -6 -93 -31 -140 -55
-191 -96 -313 -240 -383 -450 -23 -68 -23 -82 -27 -479 -4 -479 0 -511 77
-671 75 -153 182 -261 337 -339 79 -39 551 -190 651 -207 38 -7 108 -9 162 -6
102 6 132 14 766 203 384 115 381 115 660 19 183 -62 209 -68 301 -72 125 -6
192 7 295 59 140 70 237 179 298 336 l26 67 3 479 c3 412 1 491 -13 560 -31
153 -100 279 -212 389 -89 87 -175 139 -303 182 l-65 22 -6 159 c-9 218 -38
341 -121 509 -120 242 -302 423 -543 541 -121 59 -242 97 -359 113 -89 13
-254 12 -341 0z m347 -303 c105 -20 224 -69 315 -128 437 -285 539 -880 224
-1298 -27 -36 -180 -192 -340 -347 -233 -227 -298 -284 -331 -294 -78 -24 -90
-15 -410 293 -161 156 -315 312 -342 348 -234 308 -244 729 -25 1055 119 177
335 322 550 369 83 19 268 19 359 2z m1003 -1326 c32 -11 77 -31 99 -44 63
-37 143 -128 179 -203 l32 -68 0 -485 0 -485 -25 -48 c-46 -91 -139 -153 -244
-164 -47 -5 -76 3 -267 68 l-214 74 -155 -1 -155 0 -474 -142 c-595 -178 -528
-174 -893 -61 -145 45 -285 92 -311 106 -101 51 -183 149 -217 261 -18 59 -20
94 -20 443 0 355 1 383 20 440 12 33 31 77 44 97 59 94 191 187 282 198 l39 5
43 -88 c71 -148 148 -237 471 -550 165 -160 319 -305 343 -320 131 -89 300
-101 446 -32 55 27 108 74 373 331 170 165 331 328 358 362 58 73 127 187 161
268 14 32 25 58 26 58 0 0 27 -9 59 -20z"/>
<path d="M2410 3734 c-228 -61 -395 -243 -436 -477 -74 -411 299 -768 711
-682 309 65 516 372 461 683 -41 234 -210 417 -441 477 -74 19 -222 19 -295
-1z m275 -308 c61 -28 116 -83 147 -145 17 -35 22 -64 23 -121 0 -122 -56
-213 -168 -272 -34 -19 -58 -23 -127 -23 -73 0 -92 4 -136 27 -173 91 -216
315 -88 457 97 107 223 135 349 77z"/>
</g>
</svg>
