<?xml version="1.0" standalone="no"?>
<!DOCTYPE svg PUBLIC "-//W3C//DTD SVG 20010904//EN"
 "http://www.w3.org/TR/2001/REC-SVG-20010904/DTD/svg10.dtd">
<svg version="1.0" xmlns="http://www.w3.org/2000/svg"
 width="512.000000pt" height="512.000000pt" viewBox="0 0 512.000000 512.000000"
 preserveAspectRatio="xMidYMid meet">

<g transform="translate(0.000000,512.000000) scale(0.100000,-0.100000)"
fill="#000000" stroke="none">
<path d="M1142 4330 c-18 -11 -41 -34 -52 -52 -19 -31 -20 -51 -20 -314 0
-255 2 -288 20 -348 40 -129 157 -244 289 -286 57 -18 91 -20 346 -20 277 0
283 0 316 23 85 56 91 165 14 237 l-27 25 -246 3 c-136 1 -253 5 -261 8 -39
13 192 193 355 276 126 64 251 108 397 140 147 31 427 31 573 0 611 -131 1058
-585 1181 -1197 27 -137 24 -415 -6 -555 -32 -151 -74 -268 -142 -400 -77
-149 -161 -261 -291 -386 -208 -200 -448 -327 -738 -390 -121 -27 -458 -27
-580 -1 -298 64 -554 202 -765 412 -266 266 -411 591 -434 973 -7 108 -12 139
-28 160 -52 69 -130 89 -197 50 -79 -46 -92 -126 -61 -361 67 -509 351 -968
775 -1252 429 -288 950 -375 1457 -246 333 85 664 290 888 549 277 319 426
696 442 1117 36 941 -654 1738 -1597 1846 -126 14 -370 7 -489 -15 -307 -57
-589 -184 -823 -372 -37 -30 -69 -54 -72 -54 -3 0 -6 83 -8 184 -3 181 -3 185
-28 211 -54 58 -128 71 -188 35z"/>
<path d="M2517 3445 c-48 -17 -76 -41 -93 -82 -22 -51 -20 -809 2 -861 16 -38
413 -447 488 -503 69 -52 174 -35 216 34 25 40 27 123 4 157 -9 14 -108 117
-220 230 l-203 205 -3 367 c-3 355 -4 367 -24 395 -42 56 -108 79 -167 58z"/>
</g>
</svg>
